<?xml version="1.0" encoding="UTF-8" standalone="no"?>
<!-- Created with Inkscape (http://www.inkscape.org/) -->

<svg
   width="184.26512mm"
   height="136.89026mm"
   viewBox="0 0 184.26512 136.89026"
   version="1.1"
   id="svg1"
   xml:space="preserve"
   inkscape:version="1.3 (0e150ed6c4, 2023-07-21)"
   sodipodi:docname="CopperCutGNDx7.svg"
   xmlns:inkscape="http://www.inkscape.org/namespaces/inkscape"
   xmlns:sodipodi="http://sodipodi.sourceforge.net/DTD/sodipodi-0.dtd"
   xmlns="http://www.w3.org/2000/svg"
   xmlns:svg="http://www.w3.org/2000/svg"><sodipodi:namedview
     id="namedview1"
     pagecolor="#ffffff"
     bordercolor="#666666"
     borderopacity="1.0"
     inkscape:showpageshadow="2"
     inkscape:pageopacity="0.0"
     inkscape:pagecheckerboard="0"
     inkscape:deskcolor="#d1d1d1"
     inkscape:document-units="mm"
     inkscape:zoom="2.4235767"
     inkscape:cx="270.88064"
     inkscape:cy="196.81655"
     inkscape:current-layer="svg1"
     showgrid="false"
     showguides="false" /><defs
     id="defs1"><rect
       x="60.217865"
       y="177.59908"
       width="705.15991"
       height="58.908783"
       id="rect2" /><rect
       x="60.217865"
       y="177.59908"
       width="705.15991"
       height="58.908783"
       id="rect11" /><rect
       x="60.217865"
       y="177.59908"
       width="705.15991"
       height="58.908783"
       id="rect12" /><rect
       x="60.217865"
       y="177.59908"
       width="705.15991"
       height="58.908783"
       id="rect13" /><rect
       x="60.217865"
       y="177.59908"
       width="705.15991"
       height="58.908783"
       id="rect14" /><rect
       x="60.217865"
       y="177.59908"
       width="705.15991"
       height="58.908783"
       id="rect15" /><rect
       x="60.217865"
       y="177.59908"
       width="705.15991"
       height="58.908783"
       id="rect16" /><rect
       x="60.217865"
       y="177.59908"
       width="705.15991"
       height="58.908783"
       id="rect39" /><rect
       x="60.217865"
       y="177.59908"
       width="705.15991"
       height="58.908783"
       id="rect40" /><rect
       x="60.217865"
       y="177.59908"
       width="705.15991"
       height="58.908783"
       id="rect41" /><rect
       x="60.217865"
       y="177.59908"
       width="705.15991"
       height="58.908783"
       id="rect42" /><rect
       x="60.217865"
       y="177.59908"
       width="705.15991"
       height="58.908783"
       id="rect43" /><rect
       x="60.217865"
       y="177.59908"
       width="705.15991"
       height="58.908783"
       id="rect44" /><rect
       x="60.217865"
       y="177.59908"
       width="705.15991"
       height="58.908783"
       id="rect45" /></defs><g
     inkscape:groupmode="layer"
     id="layer7"
     inkscape:label="CopperCut"><path
       style="color:#000000;opacity:0.77;fill:#ffff00;fill-opacity:0.772549;stroke:#ff0000;stroke-linecap:round;-inkscape-stroke:none"
       d="m 22.3125,54.205078 a 1.5,1.5 0 0 0 -1.5,1.5 1.5,1.5 0 0 0 1.5,1.5 h 168.05664 a 1.5,1.5 0 0 0 1.5,-1.5 1.5,1.5 0 0 0 -1.5,-1.5 z"
       id="path419"
       transform="translate(-14.180267,-43.802641)" /></g></svg>
