<?xml version="1.0" encoding="UTF-8" standalone="no"?>
<!-- Created with Inkscape (http://www.inkscape.org/) -->

<svg
   width="184.26512mm"
   height="136.89026mm"
   viewBox="0 0 184.26512 136.89026"
   version="1.1"
   id="svg1"
   xml:space="preserve"
   inkscape:version="1.3 (0e150ed6c4, 2023-07-21)"
   sodipodi:docname="KaptonCut2.svg"
   xmlns:inkscape="http://www.inkscape.org/namespaces/inkscape"
   xmlns:sodipodi="http://sodipodi.sourceforge.net/DTD/sodipodi-0.dtd"
   xmlns="http://www.w3.org/2000/svg"
   xmlns:svg="http://www.w3.org/2000/svg"><sodipodi:namedview
     id="namedview1"
     pagecolor="#ffffff"
     bordercolor="#666666"
     borderopacity="1.0"
     inkscape:showpageshadow="2"
     inkscape:pageopacity="0.0"
     inkscape:pagecheckerboard="0"
     inkscape:deskcolor="#d1d1d1"
     inkscape:document-units="mm"
     inkscape:zoom="2.4235767"
     inkscape:cx="334.8357"
     inkscape:cy="303.68339"
     inkscape:current-layer="g1030"
     showgrid="false"
     showguides="false" /><defs
     id="defs1"><rect
       x="-80.654365"
       y="-86.178637"
       width="956.25141"
       height="816.48734"
       id="rect4" /><rect
       x="-188.37767"
       y="-107.7233"
       width="1030.8291"
       height="935.81163"
       id="rect48" /><rect
       x="-132.03125"
       y="267.45825"
       width="1212.5"
       height="321.60425"
       id="rect47" /><rect
       x="-134.2398"
       y="-62.424271"
       width="1147.3912"
       height="634.73882"
       id="rect46" /><rect
       x="-4808"
       y="1742"
       width="394"
       height="102"
       id="rect9" /><inkscape:path-effect
       effect="tiling"
       id="path-effect634"
       is_visible="true"
       lpeversion="1"
       unit="px"
       seed="1;1"
       lpesatellites=""
       num_rows="1"
       num_cols="31"
       gapx="46"
       gapy="0"
       offset="0"
       offset_type="false"
       scale="0"
       rotate="0"
       mirrorrowsx="false"
       mirrorrowsy="false"
       mirrorcolsx="false"
       mirrorcolsy="false"
       mirrortrans="false"
       shrink_interp="false"
       split_items="false"
       link_styles="false"
       interpolate_scalex="false"
       interpolate_scaley="true"
       interpolate_rotatex="false"
       interpolate_rotatey="true"
       random_scale="false"
       random_rotate="false"
       random_gap_y="false"
       random_gap_x="false"
       transformorigin="" /><rect
       x="60.217865"
       y="177.59908"
       width="705.15991"
       height="58.908783"
       id="rect2" /><rect
       x="68.508728"
       y="171.49001"
       width="674.61462"
       height="148.36285"
       id="rect1" /><marker
       id="DistanceX"
       orient="auto"
       refX="0"
       refY="0"
       style="overflow:visible"><path
         d="M 3,-3 -3,3 M 0,-5 V 5"
         style="stroke:#000000;stroke-width:0.5"
         id="path1" /></marker><pattern
       id="Hatch"
       patternUnits="userSpaceOnUse"
       width="8"
       height="8"
       x="0"
       y="0"><path
         d="M8 4 l-4,4"
         stroke="#000000"
         stroke-width="0.25"
         linecap="square"
         id="path2" /><path
         d="M6 2 l-4,4"
         stroke="#000000"
         stroke-width="0.25"
         linecap="square"
         id="path3" /><path
         d="M4 0 l-4,4"
         stroke="#000000"
         stroke-width="0.25"
         linecap="square"
         id="path4" /></pattern><symbol
       id="*Model_Space" /><symbol
       id="*Paper_Space" /><symbol
       id="*Paper_Space0" /><marker
       id="DistanceX-0"
       orient="auto"
       refX="0"
       refY="0"
       style="overflow:visible"><path
         d="M 3,-3 -3,3 M 0,-5 V 5"
         style="stroke:#000000;stroke-width:0.5"
         id="path1-2" /></marker><pattern
       id="Hatch-2"
       patternUnits="userSpaceOnUse"
       width="8"
       height="8"
       x="0"
       y="0"><path
         d="M8 4 l-4,4"
         stroke="#000000"
         stroke-width="0.25"
         linecap="square"
         id="path2-7" /><path
         d="M6 2 l-4,4"
         stroke="#000000"
         stroke-width="0.25"
         linecap="square"
         id="path3-4" /><path
         d="M4 0 l-4,4"
         stroke="#000000"
         stroke-width="0.25"
         linecap="square"
         id="path4-7" /></pattern><symbol
       id="*Model_Space-4" /><symbol
       id="*Paper_Space-5" /><symbol
       id="*Paper_Space0-0" /><rect
       x="60.217865"
       y="177.59908"
       width="705.15991"
       height="58.908783"
       id="rect2-5" /><rect
       x="60.217865"
       y="177.59908"
       width="705.15991"
       height="58.908783"
       id="rect11" /><rect
       x="60.217865"
       y="177.59908"
       width="705.15991"
       height="58.908783"
       id="rect12" /><rect
       x="60.217865"
       y="177.59908"
       width="705.15991"
       height="58.908783"
       id="rect13" /><rect
       x="60.217865"
       y="177.59908"
       width="705.15991"
       height="58.908783"
       id="rect14" /><rect
       x="60.217865"
       y="177.59908"
       width="705.15991"
       height="58.908783"
       id="rect15" /><rect
       x="60.217865"
       y="177.59908"
       width="705.15991"
       height="58.908783"
       id="rect16" /><rect
       x="68.508728"
       y="171.49001"
       width="674.61462"
       height="148.36285"
       id="rect427" /><rect
       x="60.217865"
       y="177.59908"
       width="705.15991"
       height="58.908783"
       id="rect428" /><rect
       x="60.217865"
       y="177.59908"
       width="705.15991"
       height="58.908783"
       id="rect429" /><rect
       x="60.217865"
       y="177.59908"
       width="705.15991"
       height="58.908783"
       id="rect430" /><rect
       x="60.217865"
       y="177.59908"
       width="705.15991"
       height="58.908783"
       id="rect431" /><rect
       x="60.217865"
       y="177.59908"
       width="705.15991"
       height="58.908783"
       id="rect432" /><rect
       x="60.217865"
       y="177.59908"
       width="705.15991"
       height="58.908783"
       id="rect433" /><rect
       x="60.217865"
       y="177.59908"
       width="705.15991"
       height="58.908783"
       id="rect434" /><rect
       x="60.217865"
       y="177.59908"
       width="705.15991"
       height="58.908783"
       id="rect435" /><rect
       x="60.217865"
       y="177.59908"
       width="705.15991"
       height="58.908783"
       id="rect441" /><rect
       x="60.217865"
       y="177.59908"
       width="705.15991"
       height="58.908783"
       id="rect442" /><rect
       x="60.217865"
       y="177.59908"
       width="705.15991"
       height="58.908783"
       id="rect443" /><rect
       x="60.217865"
       y="177.59908"
       width="705.15991"
       height="58.908783"
       id="rect444" /><rect
       x="60.217865"
       y="177.59908"
       width="705.15991"
       height="58.908783"
       id="rect445" /><rect
       x="60.217865"
       y="177.59908"
       width="705.15991"
       height="58.908783"
       id="rect446" /><rect
       x="60.217865"
       y="177.59908"
       width="705.15991"
       height="58.908783"
       id="rect447" /><inkscape:path-effect
       effect="tiling"
       id="path-effect634-3"
       is_visible="true"
       lpeversion="1"
       unit="px"
       seed="1;1"
       lpesatellites=""
       num_rows="3"
       num_cols="1"
       gapx="32"
       gapy="22"
       offset="0"
       offset_type="false"
       scale="0"
       rotate="0"
       mirrorrowsx="false"
       mirrorrowsy="false"
       mirrorcolsx="false"
       mirrorcolsy="false"
       mirrortrans="false"
       shrink_interp="false"
       split_items="false"
       link_styles="false"
       interpolate_scalex="false"
       interpolate_scaley="true"
       interpolate_rotatex="false"
       interpolate_rotatey="true"
       random_scale="false"
       random_rotate="false"
       random_gap_y="false"
       random_gap_x="false"
       transformorigin="" /><inkscape:path-effect
       effect="tiling"
       id="path-effect634-8"
       is_visible="true"
       lpeversion="1"
       unit="px"
       seed="1;1"
       lpesatellites=""
       num_rows="1"
       num_cols="31"
       gapx="46"
       gapy="0"
       offset="0"
       offset_type="false"
       scale="0"
       rotate="0"
       mirrorrowsx="false"
       mirrorrowsy="false"
       mirrorcolsx="false"
       mirrorcolsy="false"
       mirrortrans="false"
       shrink_interp="false"
       split_items="false"
       link_styles="false"
       interpolate_scalex="false"
       interpolate_scaley="true"
       interpolate_rotatex="false"
       interpolate_rotatey="true"
       random_scale="false"
       random_rotate="false"
       random_gap_y="false"
       random_gap_x="false"
       transformorigin="" /><rect
       x="60.217865"
       y="177.59908"
       width="705.15991"
       height="58.908783"
       id="rect39" /><rect
       x="60.217865"
       y="177.59908"
       width="705.15991"
       height="58.908783"
       id="rect40" /><rect
       x="60.217865"
       y="177.59908"
       width="705.15991"
       height="58.908783"
       id="rect41" /><rect
       x="60.217865"
       y="177.59908"
       width="705.15991"
       height="58.908783"
       id="rect42" /><rect
       x="60.217865"
       y="177.59908"
       width="705.15991"
       height="58.908783"
       id="rect43" /><rect
       x="60.217865"
       y="177.59908"
       width="705.15991"
       height="58.908783"
       id="rect44" /><rect
       x="60.217865"
       y="177.59908"
       width="705.15991"
       height="58.908783"
       id="rect45" /><rect
       x="60.217865"
       y="177.59908"
       width="705.15991"
       height="58.908783"
       id="rect55" /><rect
       x="60.217865"
       y="177.59908"
       width="705.15991"
       height="58.908783"
       id="rect56" /><rect
       x="60.217865"
       y="177.59908"
       width="705.15991"
       height="58.908783"
       id="rect57" /><rect
       x="60.217865"
       y="177.59908"
       width="705.15991"
       height="58.908783"
       id="rect58" /><rect
       x="60.217865"
       y="177.59908"
       width="705.15991"
       height="58.908783"
       id="rect59" /><rect
       x="60.217865"
       y="177.59908"
       width="705.15991"
       height="58.908783"
       id="rect60" /><rect
       x="60.217865"
       y="177.59908"
       width="705.15991"
       height="58.908783"
       id="rect61" /><rect
       x="60.217865"
       y="177.59908"
       width="705.15991"
       height="58.908783"
       id="rect23" /><rect
       x="60.217865"
       y="177.59908"
       width="705.15991"
       height="58.908783"
       id="rect24" /><rect
       x="60.217865"
       y="177.59908"
       width="705.15991"
       height="58.908783"
       id="rect25" /><rect
       x="60.217865"
       y="177.59908"
       width="705.15991"
       height="58.908783"
       id="rect26" /><rect
       x="60.217865"
       y="177.59908"
       width="705.15991"
       height="58.908783"
       id="rect27" /><rect
       x="60.217865"
       y="177.59908"
       width="705.15991"
       height="58.908783"
       id="rect28" /><rect
       x="60.217865"
       y="177.59908"
       width="705.15991"
       height="58.908783"
       id="rect29" /><rect
       x="60.217865"
       y="177.59908"
       width="705.15991"
       height="58.908783"
       id="rect53" /><rect
       x="60.217865"
       y="177.59908"
       width="705.15991"
       height="58.908783"
       id="rect54" /><rect
       x="60.217865"
       y="177.59908"
       width="705.15991"
       height="58.908783"
       id="rect62" /><rect
       x="60.217865"
       y="177.59908"
       width="705.15991"
       height="58.908783"
       id="rect63" /><rect
       x="60.217865"
       y="177.59908"
       width="705.15991"
       height="58.908783"
       id="rect64" /><rect
       x="60.217865"
       y="177.59908"
       width="705.15991"
       height="58.908783"
       id="rect65" /><rect
       x="60.217865"
       y="177.59908"
       width="705.15991"
       height="58.908783"
       id="rect66" /></defs><g
     inkscape:label="KaptonCut"
     inkscape:groupmode="layer"
     id="g1030"
     style="display:inline"
     transform="translate(-14.180267,-43.80264)"><path
       d="m 64.812766,53.165137 a 0.50000005,0.50000005 0 0 0 -0.999998,0 0.50000005,0.50000005 0 0 0 0.999998,0 z"
       style="opacity:0.77;fill:none;stroke:#000000;stroke-width:0.264999;stroke-linecap:round;stroke-dasharray:none"
       id="path717" /><path
       d="m 22.812887,53.165295 a 0.50005286,0.50005286 0 0 0 -1.000105,0 0.50005286,0.50005286 0 0 0 1.000105,0 z"
       style="opacity:0.77;fill:none;stroke:#000000;stroke-width:0.265027;stroke-linecap:round;stroke-dasharray:none"
       id="path719" /><path
       d="m 50.812768,53.165137 a 0.5000005,0.5000005 0 0 0 -1.000001,0 0.5000005,0.5000005 0 0 0 1.000001,0 z"
       style="opacity:0.77;fill:none;stroke:#000000;stroke-width:0.264999;stroke-linecap:round;stroke-dasharray:none"
       id="path728" /><path
       d="m 36.812768,53.165137 a 0.50000005,0.50000005 0 0 0 -1,0 0.50000005,0.50000005 0 0 0 1,0 z"
       style="opacity:0.77;fill:none;stroke:#000000;stroke-width:0.264999;stroke-linecap:round;stroke-dasharray:none"
       id="path812" /><path
       d="m 78.812767,53.165137 a 0.50000032,0.50000032 0 0 0 -1,0 0.50000032,0.50000032 0 0 0 1,0 z"
       style="opacity:0.77;fill:none;stroke:#000000;stroke-width:0.264999;stroke-linecap:round;stroke-dasharray:none"
       id="path816" /><path
       d="m 92.812768,53.165137 a 0.5000005,0.5000005 0 0 0 -1.000001,0 0.5000005,0.5000005 0 0 0 1.000001,0 z"
       style="opacity:0.77;fill:none;stroke:#000000;stroke-width:0.264999;stroke-linecap:round;stroke-dasharray:none"
       id="path818" /><path
       d="m 106.81277,53.165137 a 0.50000032,0.50000032 0 0 0 -1,0 0.50000032,0.50000032 0 0 0 1,0 z"
       style="opacity:0.77;fill:none;stroke:#000000;stroke-width:0.264999;stroke-linecap:round;stroke-dasharray:none"
       id="path820" /><path
       d="m 120.81277,53.165137 a 0.50000032,0.50000032 0 0 0 -1,0 0.50000032,0.50000032 0 0 0 1,0 z"
       style="opacity:0.77;fill:none;stroke:#000000;stroke-width:0.264999;stroke-linecap:round;stroke-dasharray:none"
       id="path822" /><path
       d="m 134.81277,53.165137 a 0.50000005,0.50000005 0 0 0 -1,0 0.50000005,0.50000005 0 0 0 1,0 z"
       style="opacity:0.77;fill:none;stroke:#000000;stroke-width:0.264999;stroke-linecap:round;stroke-dasharray:none"
       id="path824" /><path
       d="m 148.81277,53.165137 a 0.50000032,0.50000032 0 0 0 -1,0 0.50000032,0.50000032 0 0 0 1,0 z"
       style="opacity:0.77;fill:none;stroke:#000000;stroke-width:0.264999;stroke-linecap:round;stroke-dasharray:none"
       id="path826" /><path
       d="m 162.81277,53.165137 a 0.50000032,0.50000032 0 0 0 -1,0 0.50000032,0.50000032 0 0 0 1,0 z"
       style="opacity:0.77;fill:none;stroke:#000000;stroke-width:0.264999;stroke-linecap:round;stroke-dasharray:none"
       id="path836" /><path
       d="m 176.81277,53.165137 a 0.50000032,0.50000032 0 0 0 -1,0 0.50000032,0.50000032 0 0 0 1,0 z"
       style="opacity:0.77;fill:none;stroke:#000000;stroke-width:0.264999;stroke-linecap:round;stroke-dasharray:none"
       id="path838" /><path
       d="m 190.81277,53.165137 a 0.50000032,0.50000032 0 0 0 -1,0 0.50000032,0.50000032 0 0 0 1,0 z"
       style="opacity:0.77;fill:none;stroke:#000000;stroke-width:0.264999;stroke-linecap:round;stroke-dasharray:none"
       id="path840" /><path
       d="m 148.81277,72.165136 a 0.50000032,0.50000032 0 0 0 -1,0 0.50000032,0.50000032 0 0 0 1,0 z"
       style="opacity:0.77;fill:none;stroke:#000000;stroke-width:0.264999;stroke-linecap:round;stroke-dasharray:none"
       id="path737" /><path
       d="m 134.81277,72.165136 a 0.50000005,0.50000005 0 0 0 -1,0 0.50000005,0.50000005 0 0 0 1,0 z"
       style="opacity:0.77;fill:none;stroke:#000000;stroke-width:0.264999;stroke-linecap:round;stroke-dasharray:none"
       id="path743" /><path
       d="m 120.81277,72.165136 a 0.50000032,0.50000032 0 0 0 -1,0 0.50000032,0.50000032 0 0 0 1,0 z"
       style="opacity:0.77;fill:none;stroke:#000000;stroke-width:0.264999;stroke-linecap:round;stroke-dasharray:none"
       id="path761" /><path
       d="m 106.81277,72.165136 a 0.50000032,0.50000032 0 0 0 -1,0 0.50000032,0.50000032 0 0 0 1,0 z"
       style="opacity:0.77;fill:none;stroke:#000000;stroke-width:0.264999;stroke-linecap:round;stroke-dasharray:none"
       id="path767" /><path
       d="m 92.812768,72.165136 a 0.5000005,0.5000005 0 0 0 -1.000001,0 0.5000005,0.5000005 0 0 0 1.000001,0 z"
       style="opacity:0.77;fill:none;stroke:#000000;stroke-width:0.264999;stroke-linecap:round;stroke-dasharray:none"
       id="path773" /><path
       d="m 190.81277,72.165136 a 0.50000032,0.50000032 0 0 0 -1,0 0.50000032,0.50000032 0 0 0 1,0 z"
       style="opacity:0.77;fill:none;stroke:#000000;stroke-width:0.264999;stroke-linecap:round;stroke-dasharray:none"
       id="path793" /><path
       d="m 176.81277,72.165136 a 0.50000032,0.50000032 0 0 0 -1,0 0.50000032,0.50000032 0 0 0 1,0 z"
       style="opacity:0.77;fill:none;stroke:#000000;stroke-width:0.264999;stroke-linecap:round;stroke-dasharray:none"
       id="path795" /><path
       d="m 162.81277,72.165136 a 0.50000032,0.50000032 0 0 0 -1,0 0.50000032,0.50000032 0 0 0 1,0 z"
       style="opacity:0.77;fill:none;stroke:#000000;stroke-width:0.264999;stroke-linecap:round;stroke-dasharray:none"
       id="path797" /><path
       d="m 78.812767,72.165136 a 0.50000032,0.50000032 0 0 0 -1,0 0.50000032,0.50000032 0 0 0 1,0 z"
       style="opacity:0.77;fill:none;stroke:#000000;stroke-width:0.264999;stroke-linecap:round;stroke-dasharray:none"
       id="path828" /><path
       d="m 64.812766,72.165136 a 0.50000005,0.50000005 0 0 0 -0.999998,0 0.50000005,0.50000005 0 0 0 0.999998,0 z"
       style="opacity:0.77;fill:none;stroke:#000000;stroke-width:0.264999;stroke-linecap:round;stroke-dasharray:none"
       id="path830" /><path
       d="m 50.812768,72.165136 a 0.5000005,0.5000005 0 0 0 -1.000001,0 0.5000005,0.5000005 0 0 0 1.000001,0 z"
       style="opacity:0.77;fill:none;stroke:#000000;stroke-width:0.264999;stroke-linecap:round;stroke-dasharray:none"
       id="path832" /><path
       d="m 36.812768,72.165136 a 0.50000005,0.50000005 0 0 0 -1,0 0.50000005,0.50000005 0 0 0 1,0 z"
       style="opacity:0.77;fill:none;stroke:#000000;stroke-width:0.264999;stroke-linecap:round;stroke-dasharray:none"
       id="path834" /><path
       d="m 22.812768,72.165136 a 0.50000005,0.50000005 0 0 0 -1,0 0.50000005,0.50000005 0 0 0 1,0 z"
       style="opacity:0.77;fill:none;stroke:#000000;stroke-width:0.264999;stroke-linecap:round;stroke-dasharray:none"
       id="path842" /><path
       d="m 190.81277,148.16512 a 0.50000032,0.50000032 0 0 0 -1,0 0.50000032,0.50000032 0 0 0 1,0 z"
       style="opacity:0.77;fill:none;stroke:#000000;stroke-width:0.264999;stroke-linecap:round;stroke-dasharray:none"
       id="path721" /><path
       d="m 120.81277,148.16512 a 0.50000032,0.50000032 0 0 0 -1,0 0.50000032,0.50000032 0 0 0 1,0 z"
       style="opacity:0.77;fill:none;stroke:#000000;stroke-width:0.264999;stroke-linecap:round;stroke-dasharray:none"
       id="path723" /><path
       d="m 176.81277,148.16512 a 0.50000032,0.50000032 0 0 0 -1,0 0.50000032,0.50000032 0 0 0 1,0 z"
       style="opacity:0.77;fill:none;stroke:#000000;stroke-width:0.264999;stroke-linecap:round;stroke-dasharray:none"
       id="path725" /><path
       d="m 106.81277,148.16512 a 0.50000032,0.50000032 0 0 0 -1,0 0.50000032,0.50000032 0 0 0 1,0 z"
       style="opacity:0.77;fill:none;stroke:#000000;stroke-width:0.264999;stroke-linecap:round;stroke-dasharray:none"
       id="path727" /><path
       d="m 92.812768,148.16512 a 0.5000005,0.5000005 0 0 0 -1.000001,0 0.5000005,0.5000005 0 0 0 1.000001,0 z"
       style="opacity:0.77;fill:none;stroke:#000000;stroke-width:0.264999;stroke-linecap:round;stroke-dasharray:none"
       id="path733" /><path
       d="m 162.81277,148.16512 a 0.50000032,0.50000032 0 0 0 -1,0 0.50000032,0.50000032 0 0 0 1,0 z"
       style="opacity:0.77;fill:none;stroke:#000000;stroke-width:0.264999;stroke-linecap:round;stroke-dasharray:none"
       id="path735" /><path
       d="m 78.812767,148.16512 a 0.50000032,0.50000032 0 0 0 -1,0 0.50000032,0.50000032 0 0 0 1,0 z"
       style="opacity:0.77;fill:none;stroke:#000000;stroke-width:0.264999;stroke-linecap:round;stroke-dasharray:none"
       id="path739" /><path
       d="m 148.81277,148.16512 a 0.50000032,0.50000032 0 0 0 -1,0 0.50000032,0.50000032 0 0 0 1,0 z"
       style="opacity:0.77;fill:none;stroke:#000000;stroke-width:0.264999;stroke-linecap:round;stroke-dasharray:none"
       id="path741" /><path
       d="m 64.812766,148.16512 a 0.50000005,0.50000005 0 0 0 -0.999998,0 0.50000005,0.50000005 0 0 0 0.999998,0 z"
       style="opacity:0.77;fill:none;stroke:#000000;stroke-width:0.264999;stroke-linecap:round;stroke-dasharray:none"
       id="path745" /><path
       d="m 134.81277,148.16512 a 0.50000005,0.50000005 0 0 0 -1,0 0.50000005,0.50000005 0 0 0 1,0 z"
       style="opacity:0.77;fill:none;stroke:#000000;stroke-width:0.264999;stroke-linecap:round;stroke-dasharray:none"
       id="path747" /><path
       d="m 50.812768,148.16512 a 0.5000005,0.5000005 0 0 0 -1.000001,0 0.5000005,0.5000005 0 0 0 1.000001,0 z"
       style="opacity:0.77;fill:none;stroke:#000000;stroke-width:0.264999;stroke-linecap:round;stroke-dasharray:none"
       id="path751" /><path
       d="m 36.812768,148.16512 a 0.50000005,0.50000005 0 0 0 -1,0 0.50000005,0.50000005 0 0 0 1,0 z"
       style="opacity:0.77;fill:none;stroke:#000000;stroke-width:0.264999;stroke-linecap:round;stroke-dasharray:none"
       id="path755" /><path
       d="m 22.812768,148.16512 a 0.50000005,0.50000005 0 0 0 -1,0 0.50000005,0.50000005 0 0 0 1,0 z"
       style="opacity:0.77;fill:none;stroke:#000000;stroke-width:0.264999;stroke-linecap:round;stroke-dasharray:none"
       id="path866" /><path
       d="m 92.812768,129.16514 a 0.5000005,0.5000005 0 0 0 -1.000001,0 0.5000005,0.5000005 0 0 0 1.000001,0 z"
       style="opacity:0.77;fill:none;stroke:#000000;stroke-width:0.264999;stroke-linecap:round;stroke-dasharray:none"
       id="path844" /><path
       d="m 78.812767,129.16514 a 0.50000032,0.50000032 0 0 0 -1,0 0.50000032,0.50000032 0 0 0 1,0 z"
       style="opacity:0.77;fill:none;stroke:#000000;stroke-width:0.264999;stroke-linecap:round;stroke-dasharray:none"
       id="path846" /><path
       d="m 64.812766,129.16514 a 0.50000005,0.50000005 0 0 0 -0.999998,0 0.50000005,0.50000005 0 0 0 0.999998,0 z"
       style="opacity:0.77;fill:none;stroke:#000000;stroke-width:0.264999;stroke-linecap:round;stroke-dasharray:none"
       id="path848" /><path
       d="m 50.812768,129.16514 a 0.5000005,0.5000005 0 0 0 -1.000001,0 0.5000005,0.5000005 0 0 0 1.000001,0 z"
       style="opacity:0.77;fill:none;stroke:#000000;stroke-width:0.264999;stroke-linecap:round;stroke-dasharray:none"
       id="path850" /><path
       d="m 36.812768,129.16514 a 0.50000005,0.50000005 0 0 0 -1,0 0.50000005,0.50000005 0 0 0 1,0 z"
       style="opacity:0.77;fill:none;stroke:#000000;stroke-width:0.264999;stroke-linecap:round;stroke-dasharray:none"
       id="path852" /><path
       d="m 22.812768,129.16514 a 0.50000005,0.50000005 0 0 0 -1,0 0.50000005,0.50000005 0 0 0 1,0 z"
       style="opacity:0.77;fill:none;stroke:#000000;stroke-width:0.264999;stroke-linecap:round;stroke-dasharray:none"
       id="path854" /><path
       d="m 162.81277,129.16514 a 0.50000032,0.50000032 0 0 0 -1,0 0.50000032,0.50000032 0 0 0 1,0 z"
       style="opacity:0.77;fill:none;stroke:#000000;stroke-width:0.264999;stroke-linecap:round;stroke-dasharray:none"
       id="path860" /><path
       d="m 176.81277,129.16514 a 0.50000032,0.50000032 0 0 0 -1,0 0.50000032,0.50000032 0 0 0 1,0 z"
       style="opacity:0.77;fill:none;stroke:#000000;stroke-width:0.264999;stroke-linecap:round;stroke-dasharray:none"
       id="path862" /><path
       d="m 190.81277,129.16514 a 0.50000032,0.50000032 0 0 0 -1,0 0.50000032,0.50000032 0 0 0 1,0 z"
       style="opacity:0.77;fill:none;stroke:#000000;stroke-width:0.264999;stroke-linecap:round;stroke-dasharray:none"
       id="path864" /><path
       d="m 148.81277,129.16514 a 0.50000032,0.50000032 0 0 0 -1,0 0.50000032,0.50000032 0 0 0 1,0 z"
       style="opacity:0.77;fill:none;stroke:#000000;stroke-width:0.264999;stroke-linecap:round;stroke-dasharray:none"
       id="path868" /><path
       d="m 134.81277,129.16514 a 0.50000005,0.50000005 0 0 0 -1,0 0.50000005,0.50000005 0 0 0 1,0 z"
       style="opacity:0.77;fill:none;stroke:#000000;stroke-width:0.264999;stroke-linecap:round;stroke-dasharray:none"
       id="path870" /><path
       d="m 120.81277,129.16514 a 0.50000032,0.50000032 0 0 0 -1,0 0.50000032,0.50000032 0 0 0 1,0 z"
       style="opacity:0.77;fill:none;stroke:#000000;stroke-width:0.264999;stroke-linecap:round;stroke-dasharray:none"
       id="path872" /><path
       d="m 106.81277,129.16514 a 0.50000032,0.50000032 0 0 0 -1,0 0.50000032,0.50000032 0 0 0 1,0 z"
       style="opacity:0.77;fill:none;stroke:#000000;stroke-width:0.264999;stroke-linecap:round;stroke-dasharray:none"
       id="path874" /><path
       d="m 120.81277,91.165138 a 0.50000032,0.50000032 0 0 0 -1,0 0.50000032,0.50000032 0 0 0 1,0 z"
       style="opacity:0.77;fill:none;stroke:#000000;stroke-width:0.264999;stroke-linecap:round;stroke-dasharray:none"
       id="path777" /><path
       d="m 106.81277,91.165138 a 0.50000032,0.50000032 0 0 0 -1,0 0.50000032,0.50000032 0 0 0 1,0 z"
       style="opacity:0.77;fill:none;stroke:#000000;stroke-width:0.264999;stroke-linecap:round;stroke-dasharray:none"
       id="path779" /><path
       d="m 92.812768,91.165138 a 0.5000005,0.5000005 0 0 0 -1.000001,0 0.5000005,0.5000005 0 0 0 1.000001,0 z"
       style="opacity:0.77;fill:none;stroke:#000000;stroke-width:0.264999;stroke-linecap:round;stroke-dasharray:none"
       id="path781" /><path
       d="m 78.812767,91.165138 a 0.50000032,0.50000032 0 0 0 -1,0 0.50000032,0.50000032 0 0 0 1,0 z"
       style="opacity:0.77;fill:none;stroke:#000000;stroke-width:0.264999;stroke-linecap:round;stroke-dasharray:none"
       id="path783" /><path
       d="m 64.812766,91.165138 a 0.50000005,0.50000005 0 0 0 -0.999998,0 0.50000005,0.50000005 0 0 0 0.999998,0 z"
       style="opacity:0.77;fill:none;stroke:#000000;stroke-width:0.264999;stroke-linecap:round;stroke-dasharray:none"
       id="path785" /><path
       d="m 50.812768,91.165138 a 0.5000005,0.5000005 0 0 0 -1.000001,0 0.5000005,0.5000005 0 0 0 1.000001,0 z"
       style="opacity:0.77;fill:none;stroke:#000000;stroke-width:0.264999;stroke-linecap:round;stroke-dasharray:none"
       id="path787" /><path
       d="m 36.812768,91.165138 a 0.50000005,0.50000005 0 0 0 -1,0 0.50000005,0.50000005 0 0 0 1,0 z"
       style="opacity:0.77;fill:none;stroke:#000000;stroke-width:0.264999;stroke-linecap:round;stroke-dasharray:none"
       id="path789" /><path
       d="m 22.812768,91.165138 a 0.50000005,0.50000005 0 0 0 -1,0 0.50000005,0.50000005 0 0 0 1,0 z"
       style="opacity:0.77;fill:none;stroke:#000000;stroke-width:0.264999;stroke-linecap:round;stroke-dasharray:none"
       id="path791" /><path
       d="m 162.81277,91.165138 a 0.50000032,0.50000032 0 0 0 -1,0 0.50000032,0.50000032 0 0 0 1,0 z"
       style="opacity:0.77;fill:none;stroke:#000000;stroke-width:0.264999;stroke-linecap:round;stroke-dasharray:none"
       id="path798" /><path
       d="m 148.81277,91.165138 a 0.50000032,0.50000032 0 0 0 -1,0 0.50000032,0.50000032 0 0 0 1,0 z"
       style="opacity:0.77;fill:none;stroke:#000000;stroke-width:0.264999;stroke-linecap:round;stroke-dasharray:none"
       id="path800" /><path
       d="m 134.81277,91.165138 a 0.50000005,0.50000005 0 0 0 -1,0 0.50000005,0.50000005 0 0 0 1,0 z"
       style="opacity:0.77;fill:none;stroke:#000000;stroke-width:0.264999;stroke-linecap:round;stroke-dasharray:none"
       id="path802" /><path
       d="m 190.81277,91.165138 a 0.50000032,0.50000032 0 0 0 -1,0 0.50000032,0.50000032 0 0 0 1,0 z"
       style="opacity:0.77;fill:none;stroke:#000000;stroke-width:0.264999;stroke-linecap:round;stroke-dasharray:none"
       id="path876" /><path
       d="m 176.81277,91.165138 a 0.50000032,0.50000032 0 0 0 -1,0 0.50000032,0.50000032 0 0 0 1,0 z"
       style="opacity:0.77;fill:none;stroke:#000000;stroke-width:0.264999;stroke-linecap:round;stroke-dasharray:none"
       id="path884" /><path
       d="m 22.812768,167.16514 a 0.50000005,0.50000005 0 0 0 -1,0 0.50000005,0.50000005 0 0 0 1,0 z"
       style="opacity:0.77;fill:none;stroke:#000000;stroke-width:0.264999;stroke-linecap:round;stroke-dasharray:none"
       id="path731" /><path
       d="m 120.81277,167.16514 a 0.50000032,0.50000032 0 0 0 -1,0 0.50000032,0.50000032 0 0 0 1,0 z"
       style="opacity:0.77;fill:none;stroke:#000000;stroke-width:0.264999;stroke-linecap:round;stroke-dasharray:none"
       id="path749" /><path
       d="m 134.81277,167.16514 a 0.50000005,0.50000005 0 0 0 -1,0 0.50000005,0.50000005 0 0 0 1,0 z"
       style="opacity:0.77;fill:none;stroke:#000000;stroke-width:0.264999;stroke-linecap:round;stroke-dasharray:none"
       id="path753" /><path
       d="m 148.81277,167.16514 a 0.50000032,0.50000032 0 0 0 -1,0 0.50000032,0.50000032 0 0 0 1,0 z"
       style="opacity:0.77;fill:none;stroke:#000000;stroke-width:0.264999;stroke-linecap:round;stroke-dasharray:none"
       id="path757" /><path
       d="m 78.812767,167.16514 a 0.50000032,0.50000032 0 0 0 -1,0 0.50000032,0.50000032 0 0 0 1,0 z"
       style="opacity:0.77;fill:none;stroke:#000000;stroke-width:0.264999;stroke-linecap:round;stroke-dasharray:none"
       id="path759" /><path
       d="m 162.81277,167.16514 a 0.50000032,0.50000032 0 0 0 -1,0 0.50000032,0.50000032 0 0 0 1,0 z"
       style="opacity:0.77;fill:none;stroke:#000000;stroke-width:0.264999;stroke-linecap:round;stroke-dasharray:none"
       id="path763" /><path
       d="m 92.812768,167.16514 a 0.5000005,0.5000005 0 0 0 -1.000001,0 0.5000005,0.5000005 0 0 0 1.000001,0 z"
       style="opacity:0.77;fill:none;stroke:#000000;stroke-width:0.264999;stroke-linecap:round;stroke-dasharray:none"
       id="path765" /><path
       d="m 176.81277,167.16514 a 0.50000032,0.50000032 0 0 0 -1,0 0.50000032,0.50000032 0 0 0 1,0 z"
       style="opacity:0.77;fill:none;stroke:#000000;stroke-width:0.264999;stroke-linecap:round;stroke-dasharray:none"
       id="path769" /><path
       d="m 106.81277,167.16514 a 0.50000032,0.50000032 0 0 0 -1,0 0.50000032,0.50000032 0 0 0 1,0 z"
       style="opacity:0.77;fill:none;stroke:#000000;stroke-width:0.264999;stroke-linecap:round;stroke-dasharray:none"
       id="path771" /><path
       d="m 190.81277,167.16514 a 0.50000032,0.50000032 0 0 0 -1,0 0.50000032,0.50000032 0 0 0 1,0 z"
       style="opacity:0.77;fill:none;stroke:#000000;stroke-width:0.264999;stroke-linecap:round;stroke-dasharray:none"
       id="path775" /><path
       d="m 50.812768,167.16514 a 0.5000005,0.5000005 0 0 0 -1.000001,0 0.5000005,0.5000005 0 0 0 1.000001,0 z"
       style="opacity:0.77;fill:none;stroke:#000000;stroke-width:0.264999;stroke-linecap:round;stroke-dasharray:none"
       id="path889" /><path
       d="m 36.812768,167.16514 a 0.50000005,0.50000005 0 0 0 -1,0 0.50000005,0.50000005 0 0 0 1,0 z"
       style="opacity:0.77;fill:none;stroke:#000000;stroke-width:0.264999;stroke-linecap:round;stroke-dasharray:none"
       id="path893" /><path
       d="m 64.812766,167.16514 a 0.50000005,0.50000005 0 0 0 -0.999998,0 0.50000005,0.50000005 0 0 0 0.999998,0 z"
       style="opacity:0.77;fill:none;stroke:#000000;stroke-width:0.264999;stroke-linecap:round;stroke-dasharray:none"
       id="path894" /><path
       d="m 64.812766,110.16514 a 0.50000005,0.50000005 0 0 0 -0.999998,0 0.50000005,0.50000005 0 0 0 0.999998,0 z"
       style="opacity:0.77;fill:none;stroke:#000000;stroke-width:0.264999;stroke-linecap:round;stroke-dasharray:none"
       id="path804" /><path
       d="m 78.812767,110.16514 a 0.50000032,0.50000032 0 0 0 -1,0 0.50000032,0.50000032 0 0 0 1,0 z"
       style="opacity:0.77;fill:none;stroke:#000000;stroke-width:0.264999;stroke-linecap:round;stroke-dasharray:none"
       id="path806" /><path
       d="m 92.812768,110.16514 a 0.5000005,0.5000005 0 0 0 -1.000001,0 0.5000005,0.5000005 0 0 0 1.000001,0 z"
       style="opacity:0.77;fill:none;stroke:#000000;stroke-width:0.264999;stroke-linecap:round;stroke-dasharray:none"
       id="path808" /><path
       d="m 106.81277,110.16514 a 0.50000032,0.50000032 0 0 0 -1,0 0.50000032,0.50000032 0 0 0 1,0 z"
       style="opacity:0.77;fill:none;stroke:#000000;stroke-width:0.264999;stroke-linecap:round;stroke-dasharray:none"
       id="path810" /><path
       d="m 120.81277,110.16514 a 0.50000032,0.50000032 0 0 0 -1,0 0.50000032,0.50000032 0 0 0 1,0 z"
       style="opacity:0.77;fill:none;stroke:#000000;stroke-width:0.264999;stroke-linecap:round;stroke-dasharray:none"
       id="path814" /><path
       d="m 190.81277,110.16514 a 0.50000032,0.50000032 0 0 0 -1,0 0.50000032,0.50000032 0 0 0 1,0 z"
       style="opacity:0.77;fill:none;stroke:#000000;stroke-width:0.264999;stroke-linecap:round;stroke-dasharray:none"
       id="path856" /><path
       d="m 176.81277,110.16514 a 0.50000032,0.50000032 0 0 0 -1,0 0.50000032,0.50000032 0 0 0 1,0 z"
       style="opacity:0.77;fill:none;stroke:#000000;stroke-width:0.264999;stroke-linecap:round;stroke-dasharray:none"
       id="path858" /><path
       d="m 22.812768,110.16514 a 0.50000005,0.50000005 0 0 0 -1,0 0.50000005,0.50000005 0 0 0 1,0 z"
       style="opacity:0.77;fill:none;stroke:#000000;stroke-width:0.264999;stroke-linecap:round;stroke-dasharray:none"
       id="path878" /><path
       d="m 36.812768,110.16514 a 0.50000005,0.50000005 0 0 0 -1,0 0.50000005,0.50000005 0 0 0 1,0 z"
       style="opacity:0.77;fill:none;stroke:#000000;stroke-width:0.264999;stroke-linecap:round;stroke-dasharray:none"
       id="path880" /><path
       d="m 50.812768,110.16514 a 0.5000005,0.5000005 0 0 0 -1.000001,0 0.5000005,0.5000005 0 0 0 1.000001,0 z"
       style="opacity:0.77;fill:none;stroke:#000000;stroke-width:0.264999;stroke-linecap:round;stroke-dasharray:none"
       id="path882" /><path
       d="m 134.81277,110.16514 a 0.50000005,0.50000005 0 0 0 -1,0 0.50000005,0.50000005 0 0 0 1,0 z"
       style="opacity:0.77;fill:none;stroke:#000000;stroke-width:0.264999;stroke-linecap:round;stroke-dasharray:none"
       id="path886" /><path
       d="m 148.81277,110.16514 a 0.50000032,0.50000032 0 0 0 -1,0 0.50000032,0.50000032 0 0 0 1,0 z"
       style="opacity:0.77;fill:none;stroke:#000000;stroke-width:0.264999;stroke-linecap:round;stroke-dasharray:none"
       id="path890" /><path
       d="m 162.81277,110.16514 a 0.50000032,0.50000032 0 0 0 -1,0 0.50000032,0.50000032 0 0 0 1,0 z"
       style="opacity:0.77;fill:none;stroke:#000000;stroke-width:0.264999;stroke-linecap:round;stroke-dasharray:none"
       id="path897" /><g
       id="g1031"
       sodipodi:insensitive="true"><path
         style="opacity:0.77;fill:none;stroke:#000000;stroke-width:0.264999;stroke-linecap:round;stroke-dasharray:none"
         d="M 14.312767,178.93534 H 198.31289"
         id="path1026" /><path
         style="opacity:0.77;fill:none;stroke:#000000;stroke-width:0.264999;stroke-linecap:round;stroke-dasharray:none"
         d="m 14.312767,43.93514 v 135.0002"
         id="path1027" /><path
         style="opacity:0.77;fill:none;stroke:#000000;stroke-width:0.264999;stroke-linecap:round;stroke-dasharray:none"
         d="M 198.31289,43.93514 H 14.312767"
         id="path1028" /><path
         style="opacity:0.77;fill:none;stroke:#000000;stroke-width:0.264999;stroke-linecap:round;stroke-dasharray:none"
         d="M 198.31289,178.93534 V 43.93514"
         id="path1029" /></g></g></svg>
